<?xml version="1.0" encoding="utf-8"?>
<!-- Generator: Adobe Illustrator 26.3.1, SVG Export Plug-In . SVG Version: 6.00 Build 0)  -->
<svg version="1.1" id="Capa_1" xmlns="http://www.w3.org/2000/svg" xmlns:xlink="http://www.w3.org/1999/xlink" x="0px" y="0px"
	 viewBox="0 0 1920 1080" style="enable-background:new 0 0 1920 1080;" xml:space="preserve">
<style type="text/css">
	.st0{fill:#FF6B1A;}
	.st1{fill:#FFFFFF;}
</style>
<g>
	<path class="st0" d="M1279.9,656.18c6.37-39.02,2.87-79.26-10.15-116.51c-10.06-28.78-25.49-55.23-45.84-78.62
		c-8.98-10.32-18.86-19.94-29.37-28.6c-0.07-0.06-0.44-0.37-0.44-0.37c-0.15-0.12-0.28-0.22-0.4-0.32
		c-0.23-0.19-0.38-0.31-0.54-0.43c-24.73-20.11-52.91-35.16-83.73-44.73c-24.66-7.65-50.32-11.53-76.26-11.53
		c-6.38,0-12.84,0.24-19.2,0.71l-1.62,0.13c-0.28,0.02-0.56,0.04-0.84,0.08c-17.78,1.49-35.43,4.87-52.45,10.02
		c-19.78,5.98-38.78,14.39-56.46,24.99l-0.2,0.12c-0.16,0.09-0.31,0.19-0.47,0.28c-0.24,0.15-0.45,0.28-0.67,0.41
		c-0.24,0.15-0.46,0.29-0.69,0.43c-5.19,3.18-10.32,6.58-15.25,10.12c-5.72,3.3-11.29,7.17-16.51,11.47l-0.1,0.09
		c-0.05,0.04-0.1,0.08-0.15,0.13c0,0,0,0,0,0c-0.01,0-0.05,0.04-0.09,0.08c-8.28,6.57-15.68,14.21-21.94,22.67
		c-10.45,14.07-17.61,30.19-21,47.13c0.62-7.86,1.62-15.68,3.01-23.33c2.94-16.45,7.68-32.63,14.08-48.11l0.01-0.01h0.04l0.11-0.37
		c10.09-24.31,24.07-46.7,41.57-66.6c12.65-14.4,27.03-27.37,42.77-38.53c0.27-0.19,0.53-0.37,0.79-0.55l0.55-0.39
		c0.06-0.04,0.09-0.06,0.12-0.08c0.61-0.43,1.19-0.83,1.77-1.21c3.39-2.28,6.55-4.3,9.68-6.2c0.19-0.12,0.37-0.23,0.55-0.34
		l0.63-0.38c0.15-0.1,0.28-0.18,0.42-0.25l0.17-0.1c35.09-20.99,75.43-33.21,116.67-35.34c4.48-0.23,8.99-0.34,13.41-0.34
		c34.46,0,67.82,6.74,99.15,20.01c0.31,0.12,0.61,0.24,0.9,0.38c0.32,0.13,0.62,0.26,0.91,0.4c0.32,0.13,0.62,0.26,0.91,0.4
		c46.93,20.53,87.07,55.68,113.03,98.99c22.08,36.79,33.75,78.89,33.75,121.74C1320.5,571.04,1306.46,616.79,1279.9,656.18z"/>
	<path class="st1" d="M1071.85,282.29c34.39,0,67.69,6.72,98.99,19.99c0.3,0.12,0.59,0.24,0.89,0.37c0.29,0.12,0.59,0.25,0.92,0.4
		c0.29,0.12,0.59,0.24,0.89,0.39c23.52,10.29,45.19,24.05,64.41,40.91c19.15,16.79,35.42,36.26,48.38,57.87
		c22.03,36.71,33.68,78.72,33.67,121.49c0,46.48-13.56,91.43-39.25,130.3c5.89-38.4,2.27-77.88-10.53-114.5
		c-10.08-28.84-25.54-55.34-45.94-78.78c-8.99-10.34-18.9-19.98-29.4-28.63c-0.09-0.08-0.18-0.16-0.27-0.23
		c-0.06-0.05-0.12-0.1-0.18-0.16l-0.03-0.03l-0.03-0.02c-0.12-0.09-0.24-0.19-0.36-0.29l-0.06-0.05c-0.16-0.14-0.33-0.26-0.47-0.37
		c-24.79-20.16-53.02-35.24-83.9-44.82c-24.7-7.67-50.41-11.55-76.41-11.55c-6.39,0-12.87,0.24-19.24,0.72l-0.81,0.06l-0.8,0.06
		c-0.29,0.02-0.58,0.05-0.83,0.08c-17.83,1.5-35.52,4.88-52.57,10.04c-19.82,5.99-38.85,14.42-56.58,25.04l-0.19,0.12
		c-0.15,0.09-0.3,0.18-0.46,0.27l-0.02,0.01l-0.02,0.02c-0.2,0.13-0.41,0.26-0.62,0.38l-0.03,0.02l-0.02,0.02
		c-0.21,0.13-0.43,0.27-0.65,0.41c-5.18,3.17-10.31,6.57-15.24,10.11c-5.77,3.34-11.35,7.22-16.57,11.52l-0.04,0.03l-0.02,0.02
		l-0.04,0.04c-0.04,0.03-0.08,0.06-0.12,0.1c-0.04,0.03-0.07,0.06-0.11,0.09c-8.32,6.61-15.72,14.25-21.99,22.71l-0.01,0.01
		l-0.05,0.06c-9,12.11-15.57,25.75-19.4,40.13c0.59-5.37,1.36-10.7,2.31-15.95c2.92-16.32,7.61-32.38,13.94-47.74l0.09,0l0.19-0.7
		l0-0.01c10.05-24.2,24-46.54,41.46-66.4c12.62-14.37,26.98-27.31,42.69-38.46c0.26-0.19,0.51-0.36,0.77-0.54l0.29-0.2l0.26-0.19
		l0.02-0.01l0.02-0.02c0.02-0.01,0.04-0.02,0.06-0.03l0.04-0.02l0.04-0.03c0.52-0.37,1.08-0.75,1.72-1.17
		c3.37-2.27,6.52-4.29,9.68-6.2c0.19-0.12,0.37-0.23,0.56-0.34l0.59-0.35l0.03-0.02l0.03-0.02c0.11-0.08,0.23-0.15,0.35-0.22
		l0.18-0.1c35.01-20.94,75.28-33.14,116.44-35.27c4.47-0.23,8.96-0.34,13.36-0.34H1071.85 M1071.82,281.29
		c-4.5,0-8.97,0.12-13.41,0.34c-42.71,2.21-82.55,14.87-116.9,35.41c-0.2,0.12-0.4,0.22-0.58,0.35l-0.59,0.35
		c-0.2,0.12-0.4,0.24-0.59,0.36c-3.29,1.99-6.51,4.07-9.69,6.21c-0.58,0.39-1.17,0.78-1.74,1.19c-0.06,0.03-0.11,0.06-0.17,0.11
		c-0.19,0.13-0.36,0.26-0.55,0.39c-0.26,0.18-0.53,0.36-0.79,0.56c-15.79,11.2-30.18,24.17-42.85,38.61
		c-17.35,19.73-31.48,42.21-41.63,66.68c-0.02,0.04-0.03,0.09-0.04,0.13h-0.01c-0.02,0.05-0.04,0.11-0.05,0.16
		c-0.03,0.05-0.06,0.11-0.07,0.16c-6.35,15.36-11.11,31.48-14.11,48.21c-1.99,11.01-3.2,22.28-3.6,33.75
		c2.29-21.2,10.29-40.74,22.48-57.15l0.01-0.01c6.25-8.43,13.62-16.04,21.89-22.61c0.03-0.03,0.05-0.05,0.09-0.07
		c0.08-0.07,0.15-0.13,0.22-0.19c5.25-4.32,10.76-8.14,16.48-11.45c4.97-3.57,10.06-6.94,15.22-10.1c0.23-0.14,0.45-0.28,0.67-0.42
		c0.23-0.13,0.45-0.27,0.67-0.41c0.23-0.13,0.45-0.27,0.68-0.41c17.92-10.74,36.86-19.05,56.35-24.94c17.14-5.19,34.7-8.52,52.37-10
		c0.28-0.03,0.55-0.05,0.83-0.07c0.26-0.02,0.53-0.04,0.8-0.06c0.26-0.02,0.54-0.04,0.81-0.06c6.38-0.48,12.78-0.71,19.17-0.71
		c25.76,0,51.46,3.86,76.11,11.51c30.01,9.31,58.47,24.23,83.57,44.64c0.15,0.12,0.31,0.24,0.46,0.36c0.14,0.12,0.3,0.25,0.45,0.36
		c0.14,0.13,0.3,0.25,0.45,0.39c10.4,8.56,20.22,18.09,29.32,28.54c20.78,23.88,35.98,50.53,45.75,78.46
		c13.42,38.39,16.56,79.18,9.75,118.51c26.5-38.51,41.97-84.83,41.97-134.64c0-44.48-12.31-86.17-33.82-122
		c-26.08-43.5-65.7-78.38-113.25-99.18c-0.3-0.14-0.61-0.27-0.91-0.4c-0.3-0.14-0.61-0.27-0.91-0.4c-0.3-0.14-0.6-0.27-0.91-0.39
		c-30.44-12.9-64.04-20.05-99.35-20.05C1071.84,281.29,1071.83,281.29,1071.82,281.29L1071.82,281.29z"/>
</g>
<g>
	<path class="st0" d="M864.94,675.68c-25.83,0-51.37-3.87-75.91-11.49c-30.39-9.43-58.22-24.23-82.72-44
		c-0.17-0.12-0.31-0.23-0.44-0.35l-0.16-0.13c-0.09-0.07-0.19-0.15-0.28-0.23c-0.18-0.14-0.33-0.26-0.48-0.39
		c-10.72-8.77-20.79-18.54-29.93-29.04c-22.25-25.58-38.52-54.69-48.36-86.53c-12.01-38.9-13.73-80.52-5-120.39
		c12.03-15.54,25.97-29.66,41.43-41.97l0.57-0.45c0.4-0.32,0.8-0.64,1.2-0.95l1.06-0.81l0.57-0.46l-0.61-0.79
		c-3.82,2.87-7.55,5.85-11.09,8.87c-7.28,6.14-14.29,12.8-20.85,19.8c-2.6,2.78-5.24,5.74-7.84,8.79c-1.24,1.47-2.45,2.93-3.62,4.38
		c12.06-51.24,40.27-96.29,81.7-130.4c31.37-25.83,68.99-43.78,108.93-52.02c-1.41,0.87-2.77,1.74-4.11,2.61
		c-0.72,0.46-1.45,0.93-2.17,1.42c-1.36,0.89-2.79,1.85-4.38,2.96c-0.34,0.24-0.64,0.44-0.93,0.66c-0.03,0.02-0.1,0.06-0.18,0.11
		l-0.53,0.37c-0.29,0.2-0.55,0.38-0.8,0.56c-0.17,0.1-0.36,0.24-0.55,0.37l-0.55,0.4c-0.62,0.44-1.24,0.88-1.86,1.34
		c-35.81,25.73-63.95,60.31-81.4,100.02c-12.25,5.51-24.14,12.06-35.33,19.47c-1.36,0.89-2.79,1.86-4.39,2.96
		c-0.31,0.22-0.62,0.43-0.93,0.66l0.58,0.81c0.57-0.4,1.15-0.8,1.72-1.18c0.76-0.52,1.53-1.03,2.3-1.54
		c11.19-7.35,23.04-13.85,35.24-19.31c-12.73,29.64-19.19,61.09-19.19,93.5c0,4.36,0.11,8.68,0.34,12.86
		c2.2,41.06,15.2,81.15,37.59,115.92c0.03,0.06,0.09,0.14,0.14,0.22l0.28,0.43c0.05,0.07,0.09,0.14,0.14,0.2
		c13.96,21.49,31.25,40.68,51.36,57c18.26,14.83,38.54,27,60.26,36.2c0.28,0.13,0.57,0.25,0.87,0.37c0.36,0.15,0.66,0.28,0.98,0.41
		c0.34,0.14,0.63,0.26,0.93,0.38c17.04,6.99,34.91,12.11,53.11,15.23c14.27,2.46,28.96,3.71,43.67,3.71h0.74
		c0.48,0,0.96,0,1.44-0.01c0,0,0.01,0,0.01,0c0.69,0,1.39-0.01,2.09-0.03c13.93-0.21,27.93-1.58,41.63-4.06
		c-15.26,8.78-31.51,15.96-48.35,21.37c-20.08,6.45-41,10.38-62.19,11.68l-0.81,0.04l-0.84,0.06l-0.82,0.04
		C873.81,675.57,869.34,675.68,864.94,675.68z M668.15,335.98c-0.29,0.21-0.58,0.44-0.87,0.66l-0.6,0.46
		c-0.04,0.02-0.13,0.09-0.21,0.17l0.65,0.76c0.11-0.08,0.2-0.15,0.29-0.21l0.5-0.39c0.27-0.21,0.55-0.43,0.83-0.64L668.15,335.98z"
		/>
	<path class="st1" d="M810.48,198.21c-0.58,0.37-1.16,0.74-1.73,1.12c-0.8,0.51-1.52,0.97-2.18,1.42c-1.37,0.89-2.81,1.86-4.4,2.97
		c-0.3,0.21-0.6,0.42-0.9,0.64c-0.07,0.04-0.14,0.09-0.21,0.14l-0.26,0.18l-0.26,0.19c-0.26,0.18-0.52,0.36-0.79,0.55
		c-0.2,0.12-0.39,0.26-0.58,0.4c-0.1,0.08-0.2,0.15-0.31,0.22l-0.22,0.16c-0.76,0.53-1.34,0.95-1.87,1.34
		c-35.84,25.75-64.01,60.34-81.49,100.06c-12.21,5.5-24.06,12.04-35.22,19.42c-1.36,0.89-2.8,1.86-4.41,2.97
		c-0.31,0.22-0.62,0.43-0.94,0.66l1.17,1.62c0.52-0.37,1.08-0.75,1.72-1.17c0.74-0.5,1.49-1,2.24-1.5l0.05-0.03
		c10.81-7.11,22.24-13.41,34-18.75c-12.42,29.36-18.72,60.47-18.73,92.52c0,4.37,0.11,8.71,0.34,12.88
		c2.21,41.14,15.23,81.3,37.66,116.14c0.05,0.08,0.1,0.16,0.15,0.23l0.04,0.06l0.18,0.28l0.05,0.08c0.04,0.07,0.09,0.14,0.14,0.2
		c14.01,21.56,31.32,40.77,51.47,57.12c18.3,14.86,38.62,27.06,60.36,36.26c0.31,0.14,0.63,0.27,0.94,0.4
		c0.31,0.13,0.62,0.27,0.91,0.38c0.32,0.13,0.63,0.26,0.93,0.38c17.08,7,34.99,12.14,53.22,15.26c14.3,2.47,29.02,3.72,43.76,3.72
		l0.74,0h0.1c0.45,0,0.9,0,1.34-0.01c0.71,0,1.41-0.01,2.11-0.03c13.01-0.2,26.06-1.4,38.88-3.57c-14.49,8.12-29.86,14.8-45.75,19.9
		c-20.04,6.43-40.92,10.36-62.04,11.65c-0.14,0.01-0.29,0.01-0.43,0.02c-0.13,0.01-0.26,0.02-0.43,0.02
		c-0.13,0.01-0.26,0.02-0.39,0.03c-0.14,0.01-0.29,0.02-0.39,0.03c-0.14,0.01-0.29,0.01-0.44,0.02c-0.13,0.01-0.27,0.02-0.41,0.02
		c-4.39,0.23-8.84,0.34-13.24,0.34c-25.78,0-51.27-3.86-75.76-11.47c-30.33-9.41-58.11-24.18-82.56-43.91l-0.03-0.02l-0.03-0.02
		c-0.13-0.09-0.26-0.2-0.4-0.32l-0.14-0.12c-0.09-0.07-0.18-0.14-0.26-0.22l-0.03-0.03l-0.03-0.02c-0.14-0.11-0.29-0.23-0.44-0.35
		c-10.7-8.75-20.75-18.5-29.86-28.98c-22.21-25.52-38.44-54.57-48.26-86.35c-11.97-38.78-13.7-80.28-5.01-120.03
		c11.99-15.48,25.88-29.54,41.28-41.79l0.55-0.44c0.4-0.32,0.8-0.64,1.2-0.95l0.54-0.41l0.55-0.42l0.36-0.29l0.2-0.16l-1.23-1.58
		c-3.82,2.88-7.56,5.87-11.11,8.88c-7.29,6.16-14.32,12.83-20.89,19.84c-2.6,2.78-5.25,5.75-7.86,8.81
		c-0.76,0.9-1.51,1.79-2.24,2.69c5.82-23.73,15.24-46.34,28.04-67.25c14.03-22.92,31.85-43.36,52.98-60.75
		C735.1,224.35,771.63,206.67,810.48,198.21 M666.42,336.67c-0.1,0.07-0.2,0.15-0.3,0.24l1.33,1.49c0.07-0.05,0.14-0.11,0.22-0.16
		l0.04-0.03l0.04-0.03l0.46-0.36c0.27-0.21,0.55-0.43,0.83-0.64l-1.19-1.6c-0.29,0.22-0.59,0.44-0.87,0.66
		C666.79,336.39,666.61,336.53,666.42,336.67 M815.79,196.09c-40,7.78-78.58,25.23-111.92,52.67
		c-43.36,35.7-71.05,82.71-82.37,132.81c1.63-2.05,3.29-4.08,4.98-6.08c2.54-2.99,5.15-5.92,7.82-8.77
		c6.54-6.98,13.48-13.58,20.8-19.76c3.6-3.06,7.28-6,11.07-8.85c-0.19,0.15-0.37,0.3-0.56,0.45c-0.35,0.27-0.72,0.55-1.07,0.81
		c-0.59,0.46-1.18,0.93-1.77,1.4c-15.53,12.36-29.51,26.52-41.59,42.14c-8.73,39.73-7.18,81.35,4.98,120.76
		c9.56,30.93,25.65,60.49,48.46,86.71c9.29,10.68,19.34,20.39,29.99,29.1c0.15,0.13,0.31,0.26,0.46,0.37
		c0.14,0.13,0.3,0.25,0.44,0.36c0.15,0.13,0.31,0.26,0.46,0.36c24.94,20.12,53.14,34.86,82.89,44.09
		c24.63,7.65,50.31,11.51,76.06,11.51c4.43,0,8.86-0.11,13.29-0.34c0.28-0.01,0.56-0.03,0.84-0.04c0.28-0.02,0.55-0.03,0.83-0.05
		c0.28-0.01,0.55-0.03,0.83-0.04c21.05-1.29,41.99-5.18,62.31-11.7c17.57-5.64,34.67-13.25,50.94-22.86
		c-14.39,2.77-29.23,4.34-44.39,4.58c-0.7,0.02-1.39,0.03-2.1,0.03c0,0,0,0-0.01,0c-0.44,0.01-0.89,0.01-1.33,0.01
		c-0.03,0-0.07,0-0.1,0l-0.74,0c-14.87,0-29.44-1.27-43.59-3.71c-18.45-3.16-36.2-8.31-53.01-15.2c-0.31-0.12-0.62-0.25-0.92-0.37
		c-0.31-0.12-0.6-0.25-0.9-0.37c-0.31-0.13-0.62-0.26-0.92-0.4c-21.86-9.25-42.08-21.46-60.14-36.12
		c-19.99-16.21-37.32-35.43-51.28-56.92c-0.07-0.09-0.12-0.18-0.19-0.28c-0.05-0.09-0.11-0.17-0.16-0.26
		c-0.05-0.09-0.12-0.18-0.18-0.28c-21.8-33.86-35.24-73.33-37.51-115.68c-0.23-4.25-0.34-8.53-0.34-12.83
		c0-33.52,7-65.45,19.66-94.48c-12.77,5.64-24.97,12.3-36.48,19.87c-0.77,0.51-1.54,1.03-2.3,1.54c-0.58,0.39-1.17,0.78-1.74,1.19
		c0.31-0.22,0.62-0.44,0.92-0.65c1.45-1.01,2.9-1.99,4.38-2.95c11.19-7.4,23.04-13.94,35.44-19.51
		c17.54-40.01,45.82-74.49,81.32-100c0.62-0.46,1.23-0.9,1.86-1.34c0.18-0.13,0.36-0.26,0.55-0.4c0.18-0.13,0.36-0.26,0.55-0.37
		c0.26-0.19,0.53-0.37,0.79-0.56c0.19-0.13,0.36-0.26,0.55-0.39c0.05-0.04,0.11-0.07,0.17-0.11c0.31-0.22,0.62-0.44,0.92-0.65
		c1.45-1.01,2.9-1.99,4.38-2.95c0.72-0.48,1.44-0.95,2.17-1.41C811.43,198.77,813.59,197.42,815.79,196.09L815.79,196.09z
		 M666.82,337.63c0.05-0.05,0.11-0.1,0.16-0.13c0.48-0.36,0.97-0.75,1.46-1.11c-0.44,0.33-0.87,0.67-1.3,1.01
		C667.03,337.47,666.92,337.55,666.82,337.63L666.82,337.63z"/>
</g>
<g>
	<path class="st0" d="M825.11,561.15c-7.72-13.18-14.17-27.13-19.19-41.5c-6.34-18.1-10.45-37-12.21-56.16
		c4.33-3.54,8.86-6.99,13.46-10.25l-0.56-0.83c-0.2,0.12-0.39,0.26-0.58,0.39l-0.55,0.4c-0.62,0.44-1.24,0.88-1.86,1.34
		c-0.38,0.27-0.76,0.55-1.15,0.85c-0.24,0.17-0.5,0.36-0.75,0.55c-0.26,0.17-0.54,0.38-0.84,0.6c-0.18,0.12-0.36,0.26-0.54,0.41
		c-0.73,0.53-1.45,1.08-2.17,1.63c-1.66,1.25-3.17,2.42-4.6,3.55c-2.77-31.95,0.91-63.63,10.93-94.15
		c9.4-28.67,24.02-55.03,43.45-78.35c0.11-0.14,0.22-0.28,0.33-0.41c0.1-0.13,0.2-0.24,0.29-0.35c0.16-0.2,0.27-0.32,0.37-0.44
		c9.52-11.29,20.2-21.83,31.77-31.35c24.54-20.22,52.34-35.39,82.62-45.11c25.12-8.07,51.33-12.16,77.9-12.16
		c14.6,0,29.28,1.26,43.66,3.74c0.5,0.09,1.01,0.17,1.51,0.27c0.53,0.09,1.04,0.18,1.54,0.28l1.53,0.29
		c55.86,10.67,104.87,38.7,141.72,81.06c27.1,31.15,45.72,68.53,53.96,108.27c-26.94-41.83-65.66-74.29-112.13-93.97
		c0,0-1.54-0.64-1.83-0.77c-0.32-0.13-0.63-0.26-0.93-0.38c-30.66-12.56-63.23-18.93-96.78-18.93c-5.35,0-10.71,0.16-15.94,0.48
		c-41.22,2.53-81.48,15.12-116.43,36.42c-0.11,0.06-0.23,0.14-0.36,0.22l-0.22,0.13c-0.21,0.13-0.42,0.25-0.61,0.38
		c-0.18,0.11-0.38,0.23-0.58,0.36c-2.02,1.25-4.05,2.55-6.01,3.85c-1.36,0.89-2.79,1.86-4.39,2.96c-0.31,0.22-0.62,0.43-0.93,0.66
		c-0.04,0.02-0.11,0.06-0.18,0.12l-0.53,0.37c-0.27,0.18-0.54,0.37-0.8,0.56c-0.17,0.1-0.37,0.24-0.55,0.38l-0.55,0.4
		c-0.62,0.44-1.24,0.88-1.86,1.34l-0.12,0.08c-0.1,0.07-0.21,0.15-0.31,0.23c-0.12,0.08-0.26,0.19-0.4,0.3
		c-0.64,0.45-1.3,0.94-1.96,1.43c-0.91,0.66-1.81,1.35-2.71,2.04c-0.9,0.7-1.81,1.39-2.7,2.09c-11.68,9.12-22.56,19.32-32.36,30.32
		c-17.98,20.2-32.32,42.95-42.6,67.61c-0.01,0.02-0.04,0.07-0.06,0.14c-0.02,0.04-0.04,0.09-0.06,0.14
		c-0.03,0.06-0.07,0.15-0.08,0.25c-6.7,16.07-11.61,33.02-14.58,50.28c-2.3,13.26-3.46,26.88-3.47,40.49
		C822.15,536.24,823.15,548.84,825.11,561.15z"/>
	<path class="st1" d="M1041.25,199.3v1c14.57,0,29.23,1.25,43.57,3.73c0.5,0.08,1,0.17,1.52,0.27c0.51,0.08,1.02,0.18,1.52,0.27
		c0.49,0.09,0.98,0.18,1.46,0.28l0.07,0.01c27.04,5.16,52.79,14.57,76.53,27.96c24.56,13.85,46.4,31.66,64.91,52.94
		c26.45,30.4,44.8,66.74,53.28,105.41c-26.92-40.82-65.16-72.54-110.89-91.91l-0.52-0.22l-0.4-0.17c-0.3-0.13-0.61-0.25-0.93-0.39
		c-0.31-0.13-0.61-0.26-0.9-0.37c-30.73-12.59-63.35-18.97-97-18.97c-5.34,0-10.7,0.16-15.95,0.48
		c-41.29,2.53-81.62,15.14-116.63,36.47c-0.13,0.07-0.26,0.15-0.39,0.23c-0.07,0.04-0.13,0.08-0.2,0.13
		c-0.21,0.12-0.41,0.25-0.61,0.38c-0.2,0.12-0.4,0.24-0.58,0.36c-2.02,1.25-4.05,2.55-6.03,3.87c-1.37,0.89-2.81,1.86-4.4,2.97
		c-0.3,0.21-0.6,0.42-0.9,0.64c-0.07,0.04-0.14,0.09-0.21,0.14l-0.26,0.18l-0.26,0.18c-0.26,0.18-0.52,0.36-0.79,0.55
		c-0.2,0.12-0.39,0.26-0.58,0.4c-0.1,0.08-0.21,0.15-0.31,0.22l-0.22,0.16c-0.76,0.53-1.34,0.95-1.88,1.35l-0.11,0.08
		c-0.11,0.07-0.21,0.15-0.31,0.23c-0.13,0.1-0.26,0.19-0.39,0.3c-0.73,0.52-1.37,0.99-1.95,1.43c-0.99,0.72-1.93,1.44-2.73,2.05
		c-0.9,0.7-1.81,1.39-2.7,2.09c-11.7,9.14-22.61,19.36-32.42,30.38c-18.01,20.24-32.37,43.02-42.68,67.71
		c-0.02,0.05-0.05,0.11-0.08,0.18c-0.02,0.03-0.03,0.07-0.05,0.11c-0.04,0.08-0.07,0.16-0.09,0.24
		c-6.73,16.18-11.64,33.14-14.62,50.41c-2.3,13.28-3.47,26.94-3.47,40.58c0,11.72,0.86,23.44,2.56,34.94
		c-7.12-12.47-13.1-25.6-17.82-39.11c-6.3-17.98-10.39-36.74-12.16-55.78c4.26-3.47,8.71-6.86,13.23-10.07l-1.11-1.66
		c-0.21,0.13-0.41,0.27-0.61,0.42c-0.1,0.08-0.21,0.15-0.31,0.22l-0.22,0.16c-0.76,0.53-1.34,0.95-1.87,1.35
		c-0.39,0.28-0.77,0.56-1.14,0.84c-0.25,0.17-0.5,0.36-0.75,0.55c-0.29,0.2-0.56,0.4-0.82,0.59c-0.21,0.14-0.4,0.29-0.57,0.43
		c-0.73,0.54-1.46,1.09-2.18,1.63c-1.38,1.04-2.66,2.02-3.88,2.98c-2.61-31.57,1.08-62.86,10.98-93.03
		c9.38-28.61,23.96-54.92,43.37-78.2c0.1-0.13,0.2-0.25,0.34-0.42c0.09-0.11,0.18-0.22,0.27-0.32l0.07-0.09
		c0.1-0.13,0.2-0.25,0.31-0.37c9.48-11.24,20.14-21.76,31.69-31.27c24.5-20.18,52.24-35.32,82.46-45.02
		c25.07-8.05,51.23-12.14,77.75-12.14V199.3 M1041.25,199.3c-26.3,0-52.67,4.03-78.05,12.19c-29.48,9.46-57.64,24.48-82.79,45.2
		c-11.76,9.68-22.38,20.2-31.82,31.4c-0.11,0.13-0.22,0.26-0.33,0.4c-0.11,0.13-0.23,0.27-0.34,0.41c-0.12,0.14-0.23,0.28-0.34,0.42
		c-19.77,23.72-34.33,50.41-43.54,78.51c-10.09,30.76-13.77,63.2-10.87,95.29c1.75-1.41,3.52-2.78,5.31-4.13
		c0.72-0.55,1.44-1.09,2.17-1.63c0.18-0.14,0.35-0.28,0.54-0.41c0.29-0.21,0.56-0.42,0.85-0.61c0.24-0.19,0.5-0.37,0.74-0.55
		c0.39-0.29,0.76-0.57,1.14-0.85c0.62-0.46,1.23-0.9,1.86-1.34c0.18-0.13,0.36-0.26,0.55-0.4c0.18-0.13,0.36-0.26,0.55-0.37
		c-4.69,3.33-9.26,6.82-13.7,10.44c1.74,19.12,5.8,38.12,12.26,56.55c5.27,15.08,12.12,29.78,20.59,43.88
		c-2.23-13.02-3.39-26.4-3.38-40.03c0-13.76,1.18-27.27,3.46-40.41c3-17.45,7.93-34.29,14.58-50.26c0.01-0.05,0.03-0.11,0.05-0.15
		c0.02-0.05,0.04-0.11,0.07-0.15c0.01-0.04,0.03-0.09,0.06-0.13c10.34-24.79,24.79-47.56,42.51-67.47
		c9.8-11.01,20.62-21.14,32.29-30.26c0.89-0.7,1.79-1.39,2.7-2.09c0.89-0.68,1.79-1.37,2.71-2.03c0.65-0.49,1.31-0.97,1.97-1.44
		c0.13-0.11,0.26-0.2,0.4-0.3c0.13-0.11,0.28-0.2,0.41-0.3c0.62-0.46,1.23-0.9,1.86-1.34c0.18-0.13,0.36-0.26,0.55-0.4
		c0.18-0.13,0.36-0.26,0.55-0.37c0.26-0.19,0.53-0.37,0.79-0.56c0.19-0.13,0.36-0.26,0.55-0.39c0.05-0.04,0.11-0.07,0.17-0.11
		c0.31-0.22,0.62-0.44,0.92-0.65c1.45-1.01,2.9-1.99,4.38-2.95c1.98-1.32,3.98-2.6,6.01-3.85c0.2-0.13,0.4-0.25,0.59-0.36
		c0.19-0.13,0.39-0.25,0.58-0.36c0.2-0.12,0.39-0.25,0.58-0.35c34.08-20.77,73.69-33.74,116.2-36.34
		c5.25-0.32,10.55-0.48,15.89-0.48c0.01,0,0.01,0,0.02,0c34.26,0,66.89,6.73,96.6,18.9c0.3,0.12,0.6,0.25,0.91,0.37
		c0.3,0.13,0.6,0.26,0.91,0.39c0.31,0.13,0.62,0.26,0.92,0.39c47.16,19.97,86.74,53.73,113.35,96.05
		c-7.75-39.71-25.85-78.08-54.6-111.13c-37.99-43.68-88.46-71-142-81.23c-0.51-0.1-1.01-0.19-1.53-0.29
		c-0.51-0.1-1.02-0.19-1.54-0.28c-0.51-0.1-1.01-0.18-1.52-0.27C1070.55,200.55,1055.91,199.3,1041.25,199.3L1041.25,199.3z"/>
</g>
<g>
	<path class="st0" d="M820.42,770.82c-31.41,0-62.01-5.62-90.95-16.7c-0.31-0.12-0.61-0.23-0.91-0.35c-0.29-0.1-0.56-0.21-0.83-0.32
		c-0.37-0.14-0.66-0.26-0.97-0.38c-48.05-19.02-89.72-53.14-117.33-96.08c-24.64-38.33-37.67-82.62-37.66-128.08
		c0-52.15,16.76-101.71,48.47-143.48c-8.27,39.41-6.39,80.45,5.46,118.84c9.88,31.98,26.22,61.21,48.56,86.89
		c9.17,10.54,19.28,20.35,30.05,29.16c0.16,0.13,0.31,0.26,0.47,0.39c0.08,0.07,0.19,0.16,0.3,0.25l0.12,0.1
		c0.16,0.14,0.33,0.27,0.5,0.39c24.57,19.83,52.51,34.69,83.02,44.15c24.63,7.65,50.27,11.54,76.21,11.54
		c4.42,0,8.9-0.12,13.32-0.34l0.83-0.04l0.84-0.06l0.81-0.04c21.28-1.31,42.29-5.25,62.44-11.73c17.83-5.72,35-13.43,51.04-22.91
		l0.7-0.42c0.21-0.12,0.43-0.25,0.66-0.38l0.69-0.42l2.52-1.48l-2.87,0.56c-5.84,1.13-11.76,2.07-17.68,2.79
		c13.76-3.56,26.67-9.39,38.46-17.38c0.47-0.31,0.95-0.63,1.43-0.97c0.19-0.13,0.33-0.23,0.46-0.33c0,0,0,0,0,0
		c0.01,0,0.06-0.03,0.1-0.07l0.14-0.09l0.04-0.04c0.32-0.21,0.6-0.41,0.86-0.6c4.63-3.21,9.11-6.82,13.31-10.73
		c0.55-0.5,1.11-1.02,1.65-1.56c0.54-0.51,1.08-1.04,1.61-1.58c0.53-0.51,1.04-1.04,1.54-1.57c0.88-0.92,1.83-1.91,2.75-2.95
		c0.54-0.59,1.07-1.19,1.59-1.79c0.4-0.45,0.8-0.92,1.18-1.38c1.14-1.34,2.28-2.75,3.38-4.18c0.51-0.66,1.02-1.32,1.51-2l0.45-0.62
		c0.09-0.13,0.19-0.25,0.27-0.38c0.4-0.54,0.81-1.11,1.21-1.7c7.41-10.54,13-22.16,16.61-34.51l0.01-0.01
		c-0.92,7.49-2.19,14.94-3.81,22.23c-0.17,0.23-0.36,0.46-0.55,0.7c-0.22,0.29-0.43,0.57-0.66,0.84l-0.08,0.09l-0.03,0.12
		c-3.2,14.21-7.78,28.22-13.59,41.66l-0.06,0.16l-0.1,0.21l-0.04,0.1c-9.07,20.8-21.06,40.24-35.68,57.82
		c-10.31,12.37-21.91,23.81-34.48,34c-0.84,0.67-1.69,1.34-2.55,2.02c-0.53,0.42-1.05,0.83-1.59,1.24c-0.45,0.35-0.9,0.69-1.35,1.04
		l-1.12,0.86l-2.15,1.61h-0.02l-0.14,0.11c-0.07,0.05-0.12,0.1-0.17,0.13c0,0-2.68,1.94-2.93,2.12l-0.06,0.03l-0.09,0.07
		c-0.12,0.09-0.24,0.18-0.36,0.26l-0.05,0.03l-0.04,0.04c-0.17,0.12-1.27,0.88-1.27,0.88c-1.44,1-2.87,1.95-4.31,2.91
		c-2.4,1.57-4.82,3.1-7.27,4.59c-0.19,0.13-0.38,0.24-0.56,0.35l-1.21,0.72c-33.34,19.95-71.64,32.04-110.75,34.97
		C833.31,770.58,826.81,770.82,820.42,770.82L820.42,770.82z"/>
	<path class="st1" d="M619.3,387.51c-7.77,38.82-5.74,79.14,5.92,116.91c9.9,32.04,26.27,61.34,48.66,87.07
		c9.19,10.56,19.32,20.39,30.1,29.22c0.15,0.13,0.31,0.26,0.46,0.37c0.1,0.09,0.21,0.18,0.32,0.26l0.12,0.1
		c0.17,0.14,0.33,0.28,0.5,0.39c24.64,19.88,52.63,34.76,83.19,44.24c24.68,7.67,50.37,11.56,76.35,11.56
		c4.43,0,8.92-0.12,13.33-0.34c0.14-0.01,0.29-0.01,0.44-0.02c0.13-0.01,0.27-0.02,0.44-0.02c0.13-0.01,0.26-0.02,0.39-0.03
		c0.14-0.01,0.29-0.02,0.39-0.03c0.14-0.01,0.29-0.01,0.43-0.02c0.13-0.01,0.26-0.02,0.42-0.02c21.32-1.31,42.36-5.26,62.56-11.75
		c17.87-5.73,35.07-13.46,51.15-22.96l0.27-0.16l0.4-0.24c0.24-0.13,0.48-0.28,0.71-0.42c0.12-0.07,0.23-0.14,0.35-0.21
		c0.1-0.06,0.21-0.13,0.31-0.19l5.08-2.97l-5.78,1.12c-3.59,0.7-7.22,1.32-10.85,1.86c11.35-3.61,22.06-8.81,31.98-15.54
		c0.48-0.32,0.96-0.64,1.44-0.98l0.06-0.04c0.13-0.09,0.26-0.18,0.38-0.27c0.04-0.03,0.08-0.06,0.13-0.09
		c0.02-0.02,0.04-0.03,0.06-0.05l0.1-0.06l0.02-0.02l0.02-0.01l0.03-0.02c0.28-0.2,0.56-0.39,0.81-0.58
		c4.66-3.23,9.16-6.86,13.37-10.77c0.68-0.62,1.19-1.11,1.65-1.57c0.61-0.58,1.15-1.11,1.61-1.58c0.54-0.53,1.06-1.06,1.56-1.59
		c0.89-0.93,1.85-1.93,2.76-2.95c0.5-0.54,1.02-1.14,1.6-1.8c0.46-0.53,0.85-0.98,1.18-1.38c1.16-1.37,2.3-2.78,3.4-4.21
		c0.46-0.59,0.99-1.29,1.51-2.01l0.33-0.46l0.11-0.15c0.1-0.14,0.2-0.27,0.27-0.38c0.41-0.56,0.83-1.14,1.22-1.72
		c6.36-9.05,11.38-18.87,14.97-29.27c-0.81,5.55-1.82,11.06-3.02,16.47c-0.15,0.2-0.31,0.4-0.5,0.63c-0.2,0.27-0.41,0.54-0.63,0.81
		l-0.15,0.18l-0.05,0.23c-3.2,14.17-7.76,28.16-13.57,41.57l-0.02,0.04l-0.01,0.04c-0.01,0.03-0.02,0.05-0.03,0.08
		c-0.01,0.03-0.03,0.05-0.04,0.08l-0.03,0.06l-0.02,0.04l-0.02,0.04l-0.02,0.06l-0.02,0.03l-0.03,0.07
		c-9.02,20.7-20.99,40.1-35.58,57.64c-10.29,12.34-21.86,23.76-34.4,33.93c-0.85,0.67-1.69,1.35-2.55,2.02
		c-0.52,0.41-1.04,0.83-1.59,1.24c-0.49,0.38-1,0.77-1.52,1.17l-0.07,0.06c-0.05,0.03-0.09,0.07-0.11,0.09l-0.27,0.21l-0.48,0.36
		c-0.35,0.26-0.71,0.53-1.06,0.8c-0.33,0.25-0.66,0.49-0.98,0.73l-0.04,0l-0.28,0.22c-0.03,0.03-0.07,0.06-0.1,0.08l-0.02,0.01
		l-0.02,0.02c-0.24,0.17-0.47,0.35-0.71,0.52l-0.7,0.51c-0.24,0.18-0.49,0.36-0.74,0.53c-0.25,0.18-0.5,0.36-0.77,0.56l-0.07,0.03
		l-0.09,0.07c-0.1,0.08-0.22,0.16-0.32,0.23l-0.09,0.06l-0.02,0.02c-0.19,0.14-0.39,0.27-0.58,0.41l-0.27,0.18l-0.19,0.13
		c-0.07,0.05-0.14,0.1-0.23,0.16c-1.44,1-2.92,1.98-4.36,2.94c-2.31,1.52-4.73,3.05-7.19,4.54l-0.02,0.01l-0.02,0.02
		c-0.17,0.12-0.35,0.22-0.53,0.33l-0.59,0.35l-0.6,0.35c-33.28,19.91-71.5,31.98-110.53,34.9c-6.43,0.47-12.91,0.71-19.29,0.71
		c-31.34,0-61.88-5.61-90.77-16.67c-0.3-0.12-0.61-0.23-0.93-0.36c-0.29-0.1-0.57-0.22-0.87-0.34c-0.3-0.11-0.59-0.23-0.9-0.36
		c-24.11-9.54-46.47-22.7-66.46-39.1c-19.85-16.29-36.88-35.39-50.63-56.78c-24.59-38.25-37.59-82.45-37.58-127.81
		c0-26.62,4.43-52.77,13.15-77.73C593.38,428.42,604.77,407.02,619.3,387.51 M621.2,383.36c-31.35,40.52-49.92,90.93-49.92,145.55
		c0,47.14,13.82,91.14,37.74,128.35c27.64,42.99,68.74,76.95,117.56,96.27c0.31,0.13,0.61,0.25,0.91,0.36
		c0.3,0.12,0.59,0.24,0.89,0.34c0.3,0.12,0.6,0.24,0.91,0.35c28.22,10.8,58.96,16.73,91.13,16.73c0.01,0,0.01,0,0.02,0
		c6.51,0,12.96-0.25,19.34-0.72c40.46-3.02,78.23-15.45,110.97-35.04c0.2-0.12,0.4-0.24,0.59-0.35c0.2-0.12,0.4-0.24,0.59-0.35
		c0.2-0.12,0.4-0.24,0.58-0.36c2.43-1.48,4.84-3,7.22-4.56c1.46-0.97,2.93-1.95,4.38-2.95c0.13-0.09,0.26-0.18,0.41-0.28
		c0.31-0.21,0.63-0.43,0.94-0.65l0.01-0.01c0.13-0.09,0.28-0.18,0.41-0.29c0.04-0.02,0.09-0.05,0.13-0.09c0.5-0.36,1-0.72,1.5-1.08
		c0.47-0.34,0.94-0.68,1.41-1.03c0.07-0.04,0.14-0.11,0.21-0.16c0.02,0,0.03-0.02,0.05-0.03c0.04-0.03,0.09-0.06,0.13-0.1
		c0.7-0.52,1.41-1.06,2.11-1.58c0.25-0.19,0.51-0.39,0.76-0.58c0.07-0.05,0.14-0.11,0.21-0.16c0.51-0.39,1.01-0.77,1.51-1.16
		c0.54-0.41,1.07-0.82,1.6-1.24c0.86-0.67,1.71-1.35,2.55-2.02c12.63-10.24,24.2-21.66,34.55-34.07
		c14.51-17.45,26.59-36.92,35.73-57.88c0.03-0.05,0.05-0.12,0.08-0.17c0.03-0.06,0.06-0.12,0.09-0.18c0.02-0.05,0.04-0.11,0.07-0.17
		c5.78-13.34,10.37-27.3,13.62-41.75c0.23-0.28,0.45-0.57,0.66-0.85c0.22-0.27,0.43-0.54,0.63-0.8c2.11-9.52,3.64-19.25,4.57-29.15
		c-0.25,1.12-0.53,2.25-0.84,3.36c-0.25,1.03-0.53,2.04-0.85,3.06c0.01,0.01,0.01,0.02,0,0.03c-3.53,12.14-9.07,23.8-16.58,34.49
		c-0.4,0.58-0.8,1.15-1.21,1.7c-0.12,0.18-0.25,0.35-0.39,0.54c-0.11,0.15-0.22,0.3-0.33,0.45c-0.48,0.67-0.99,1.34-1.5,1.99
		c-1.09,1.42-2.21,2.81-3.37,4.17c-0.37,0.46-0.77,0.92-1.17,1.37c-0.52,0.6-1.05,1.2-1.58,1.79c-0.89,1-1.82,1.97-2.74,2.93
		c-0.51,0.52-1.01,1.05-1.54,1.56c-0.53,0.54-1.07,1.06-1.61,1.57c-0.54,0.54-1.09,1.05-1.64,1.55c-4.16,3.86-8.58,7.44-13.27,10.69
		c-0.26,0.19-0.54,0.39-0.81,0.58c-0.03,0.02-0.08,0.04-0.11,0.07c-0.09,0.05-0.17,0.12-0.25,0.17c-0.13,0.11-0.28,0.2-0.43,0.31
		c-0.47,0.33-0.95,0.65-1.42,0.96c-13.81,9.36-29.69,16.02-46.84,19.21c8.95-0.78,17.79-2.03,26.45-3.71
		c-0.22,0.13-0.44,0.27-0.66,0.4c-0.23,0.14-0.46,0.28-0.69,0.41c-0.23,0.14-0.46,0.28-0.69,0.42
		c-16.27,9.62-33.37,17.23-50.94,22.86c-20.32,6.53-41.27,10.41-62.31,11.7c-0.28,0.01-0.55,0.03-0.83,0.04
		c-0.28,0.02-0.55,0.03-0.83,0.05c-0.28,0.01-0.56,0.03-0.84,0.04c-4.43,0.23-8.86,0.34-13.29,0.34c-25.74,0-51.43-3.86-76.06-11.51
		c-29.75-9.23-57.95-23.97-82.89-44.09c-0.15-0.11-0.31-0.24-0.46-0.36c-0.14-0.12-0.3-0.24-0.44-0.36
		c-0.15-0.12-0.31-0.25-0.46-0.37c-10.65-8.71-20.69-18.42-29.99-29.1c-22.81-26.22-38.91-55.78-48.46-86.71
		C614.02,464.71,612.47,423.1,621.2,383.36L621.2,383.36z"/>
</g>
<g>
	<path class="st0" d="M852.64,847.5c-15.84,0-31.76-1.48-47.3-4.39c-0.49-0.09-0.97-0.18-1.45-0.28c-0.49-0.09-0.96-0.18-1.44-0.29
		c-0.34-0.06-0.66-0.12-0.97-0.19l-0.51-0.1c-54.43-11.19-102.24-38.98-138.26-80.38c-24.62-28.29-41.82-60.68-51.15-96.3
		c28.5,41.2,68.53,72.5,115.92,90.63l0.92,0.35c0.25,0.1,0.51,0.19,0.77,0.28l1.05,0.4c28.28,10.44,58.07,15.73,88.57,15.73
		c7.31,0,14.64-0.31,21.84-0.92c39.08-3.29,77.31-15.73,110.53-35.98c0.23-0.14,0.42-0.25,0.59-0.36l0.58-0.36
		c0.16-0.1,0.32-0.2,0.47-0.29l0.12-0.08c2.81-1.74,5.67-3.6,8.5-5.52l0.61-0.42c0.8-0.54,1.6-1.09,2.39-1.65l0.67-0.46
		c0.23-0.16,0.46-0.31,0.68-0.48c0.12-0.08,0.26-0.18,0.4-0.29c0.05-0.03,0.1-0.06,0.15-0.1c0.12-0.08,0.28-0.19,0.43-0.3
		c12.18-8.58,23.63-18.28,33.99-28.82l0.68-0.7c0.73-0.73,1.45-1.47,2.14-2.21c0.87-0.9,1.73-1.82,2.58-2.74
		c0.85-0.92,1.7-1.84,2.53-2.78c1.64-1.82,3.3-3.73,4.94-5.67c15.04-17.83,27.36-37.58,36.61-58.7c0.02-0.04,0.05-0.1,0.07-0.15
		c0.03-0.05,0.05-0.11,0.07-0.17c0.03-0.05,0.06-0.13,0.09-0.21c6.12-14.06,10.89-28.76,14.17-43.69c2.35-10.68,3.96-21.6,4.8-32.47
		c3.28-16.88,2.75-34.66-1.55-51.36c-0.73-5.33-1.68-10.78-2.81-16.18c10.96,17.5,19.59,36.31,25.66,55.94
		c5.68,18.36,9.09,37.44,10.15,56.7c-2.84,2.22-5.78,4.41-8.73,6.51l0.51,0.86c0.07-0.03,0.14-0.08,0.21-0.13
		c0.12-0.08,0.28-0.18,0.43-0.3c2.54-1.77,5.12-3.66,7.66-5.61c1.42,29.04-2.46,57.79-11.53,85.44
		c-10.09,30.79-26.14,58.83-47.72,83.35c-0.11,0.13-0.22,0.26-0.34,0.38c-0.13,0.16-0.23,0.28-0.35,0.39
		c-0.14,0.17-0.25,0.29-0.36,0.41c-8.39,9.42-17.62,18.29-27.44,26.37c-25.67,21.14-54.84,36.74-86.67,46.37
		C902.61,843.83,877.76,847.5,852.64,847.5z"/>
	<path class="st1" d="M1066.09,482.57c10.24,16.78,18.35,34.74,24.13,53.44c5.64,18.24,9.04,37.19,10.11,56.32
		c-2.77,2.16-5.63,4.29-8.51,6.34l1.02,1.71c0.09-0.04,0.17-0.1,0.26-0.16c0.14-0.09,0.3-0.2,0.44-0.31c2.3-1.61,4.62-3.3,6.92-5.04
		c1.29,28.66-2.59,57.01-11.55,84.31c-10.07,30.72-26.09,58.71-47.63,83.18c-0.1,0.12-0.21,0.24-0.32,0.36l-0.03,0.03l-0.03,0.03
		c-0.09,0.12-0.19,0.22-0.28,0.31l-0.05,0.05l-0.04,0.05c-0.1,0.12-0.19,0.22-0.28,0.31l-0.03,0.03l-0.02,0.03
		c-8.35,9.38-17.55,18.22-27.36,26.29c-25.62,21.1-54.73,36.67-86.5,46.27c-23.85,7.22-48.65,10.87-73.72,10.87
		c-15.81,0-31.69-1.47-47.22-4.39c-0.47-0.08-0.95-0.18-1.45-0.28c-0.47-0.08-0.94-0.18-1.46-0.29c-0.31-0.05-0.62-0.12-0.92-0.18
		l-0.52-0.1c-26.39-5.42-51.5-14.9-74.63-28.16c-23.93-13.72-45.25-31.24-63.36-52.05c-23.94-27.51-40.85-58.9-50.31-93.36
		c28.45,40.13,67.93,70.66,114.52,88.49l0.46,0.18l0.45,0.17c0.24,0.1,0.5,0.19,0.74,0.28l0.17,0.06l0.45,0.17l0.48,0.18
		c28.33,10.45,58.18,15.76,88.76,15.76c7.29,0,14.64-0.31,21.85-0.92c39.16-3.3,77.46-15.76,110.74-36.04
		c0.2-0.12,0.41-0.24,0.58-0.35c0.1-0.06,0.21-0.13,0.31-0.19c0.09-0.06,0.19-0.12,0.28-0.17c0.16-0.09,0.31-0.19,0.46-0.29
		l0.13-0.09c2.81-1.74,5.68-3.6,8.52-5.54l0.64-0.44c0.79-0.54,1.58-1.08,2.33-1.61c0.09-0.06,0.17-0.11,0.26-0.18l0.17-0.12
		l0.27-0.19c0.23-0.16,0.46-0.32,0.68-0.48l0.02-0.01c0.12-0.08,0.25-0.17,0.38-0.27c0.04-0.03,0.09-0.06,0.13-0.09
		c0.14-0.09,0.3-0.2,0.44-0.31c12.23-8.61,23.69-18.33,34.06-28.88l0.38-0.39l0.29-0.3c0.73-0.74,1.46-1.48,2.15-2.22
		c0.76-0.78,1.58-1.66,2.61-2.77c0.83-0.9,1.69-1.84,2.51-2.77c1.66-1.85,3.32-3.76,4.95-5.68c15.06-17.86,27.4-37.64,36.67-58.8
		c0.03-0.07,0.06-0.13,0.08-0.18c0.02-0.05,0.05-0.1,0.07-0.16c0.04-0.07,0.06-0.13,0.09-0.19c6.14-14.1,10.92-28.84,14.2-43.79
		c2.35-10.68,3.97-21.61,4.8-32.48c3.29-16.98,2.76-34.79-1.55-51.52C1067.73,491.57,1066.97,487.06,1066.09,482.57 M1063.95,477.29
		c1.39,6.23,2.53,12.54,3.41,18.94c4.33,16.82,4.82,34.32,1.54,51.2c-0.85,11.02-2.47,21.84-4.79,32.4
		c-3.31,15.1-8.08,29.69-14.14,43.61c-0.02,0.05-0.04,0.11-0.08,0.16c-0.02,0.05-0.04,0.12-0.08,0.18
		c-0.02,0.05-0.04,0.11-0.08,0.17c-9.31,21.25-21.66,40.95-36.53,58.58c-1.62,1.92-3.26,3.8-4.93,5.66
		c-0.83,0.93-1.67,1.85-2.52,2.77c-0.85,0.92-1.71,1.84-2.57,2.74c-0.69,0.74-1.41,1.48-2.13,2.2c-0.23,0.24-0.45,0.46-0.68,0.7
		c-10.37,10.55-21.75,20.19-33.95,28.78c-0.13,0.11-0.28,0.2-0.41,0.29c-0.04,0.03-0.09,0.06-0.13,0.09
		c-0.13,0.11-0.28,0.2-0.41,0.29l-0.01,0.01c-0.31,0.22-0.63,0.44-0.94,0.65c-0.14,0.1-0.28,0.19-0.41,0.28
		c-0.99,0.71-1.99,1.38-2.99,2.07c-2.78,1.89-5.61,3.73-8.48,5.51c-0.19,0.12-0.39,0.25-0.58,0.36c-0.2,0.12-0.4,0.25-0.59,0.36
		c-0.19,0.12-0.39,0.24-0.58,0.35c-32.5,19.81-70.04,32.52-110.31,35.9c-7.18,0.61-14.44,0.92-21.77,0.92c-0.01,0-0.02,0-0.02,0
		c-31.12,0-60.92-5.56-88.39-15.7c-0.31-0.12-0.61-0.24-0.91-0.35c-0.3-0.11-0.6-0.21-0.9-0.33c-0.31-0.12-0.62-0.24-0.92-0.35
		c-48.27-18.46-89.18-51.16-117.28-92.78c8.84,35.46,26.08,69.51,51.96,99.25c37.17,42.72,86.29,69.8,138.54,80.54
		c0.5,0.1,0.98,0.2,1.47,0.29c0.48,0.11,0.97,0.2,1.45,0.29c0.48,0.1,0.97,0.19,1.45,0.28c15.62,2.93,31.5,4.4,47.4,4.4
		c24.91,0,49.88-3.62,74.01-10.92c30.96-9.36,60.54-24.8,86.85-46.46c10-8.23,19.15-17.06,27.47-26.4c0.13-0.13,0.25-0.27,0.36-0.41
		c0.13-0.13,0.25-0.27,0.36-0.41c0.12-0.13,0.24-0.27,0.35-0.4c21.96-24.95,37.96-53.43,47.82-83.52
		c9.18-27.97,13.05-57.34,11.5-86.57c-2.76,2.13-5.57,4.19-8.43,6.2c-0.13,0.11-0.28,0.2-0.41,0.29c-0.04,0.03-0.09,0.06-0.13,0.09
		c3.04-2.16,6.02-4.39,8.96-6.69c-1.03-19.23-4.41-38.41-10.18-57.08C1084.92,515.47,1075.87,495.81,1063.95,477.29L1063.95,477.29z
		"/>
</g>
<g>
	<path class="st0" d="M896.5,639.57c-16.69-3.35-33.07-8.39-48.71-15.02c-0.31-0.13-0.6-0.25-0.9-0.39
		c-0.31-0.12-0.61-0.25-0.9-0.38c-0.32-0.13-0.63-0.27-0.93-0.41c-21.15-9.24-40.88-21.34-58.64-35.97
		c-19.74-16.27-36.68-35.28-50.35-56.52l-0.34-0.52c-0.07-0.11-0.12-0.18-0.16-0.26c-22.01-34.46-34.78-74.14-36.94-114.77
		c-0.22-4.19-0.33-8.46-0.33-12.69c0-32.51,6.52-64.05,19.37-93.76c0,0,0.1-0.21,0.1-0.21l0.13-0.31
		c16.41-37.67,42.66-70.96,75.91-96.28l0.43-0.32c1.83-1.4,3.85-2.88,6.36-4.67c0.26-0.19,0.52-0.37,0.79-0.55l0.55-0.39
		c0.06-0.04,0.09-0.06,0.12-0.08c0.61-0.43,1.19-0.83,1.77-1.21c4.15-2.8,8.39-5.48,12.62-7.97
		c38.75-22.88,83.31-34.98,128.88-34.98c49.18,0,96.63,13.91,137.39,40.23c-13.67-2.23-27.61-3.35-41.46-3.35
		c-26.67,0-52.99,4.11-78.21,12.21c-30.4,9.75-58.31,24.99-82.95,45.29c-11.62,9.56-22.34,20.15-31.88,31.46
		c-0.12,0.14-0.23,0.27-0.34,0.41c-0.14,0.16-0.24,0.28-0.34,0.41c-0.11,0.13-0.23,0.27-0.34,0.42
		c-19.5,23.4-34.18,49.88-43.62,78.67c-10.14,30.91-13.81,62.98-10.9,95.34l-0.02,0.03l0.02,0.14l0.02,0.16
		c1.75,19.33,5.89,38.39,12.29,56.65c5.33,15.27,12.28,30.06,20.63,43.97c0.29,0.49,0.58,0.97,0.87,1.44
		c0.29,0.47,0.57,0.94,0.87,1.41c0.28,0.47,0.58,0.94,0.89,1.43c2.23,3.57,4.71,7.28,7.37,11.05v0.34l0.2,0
		c10.56,20.95,27.04,38.33,47.69,50.27C887.74,633.28,892.09,636.51,896.5,639.57z"/>
	<path class="st1" d="M945.35,162.42c48.26,0,94.86,13.43,135.08,38.86c-12.94-1.98-26.09-2.99-39.18-2.99
		c-26.72,0-53.09,4.12-78.36,12.23c-30.46,9.77-58.42,25.04-83.12,45.38c-11.64,9.59-22.39,20.19-31.94,31.52
		c-0.12,0.14-0.23,0.27-0.33,0.39l-0.04,0.05c-0.11,0.12-0.22,0.25-0.29,0.35c-0.13,0.15-0.25,0.3-0.35,0.43
		c-19.55,23.46-34.26,49.99-43.72,78.84c-10.17,30.99-13.84,63.15-10.92,95.59c0,0.05,0,0.11,0.01,0.17c0,0.01,0,0.03,0,0.04
		c0,0.02,0,0.05,0.01,0.07c1.76,19.38,5.9,38.48,12.31,56.77c5.35,15.3,12.3,30.13,20.67,44.06c0.29,0.49,0.58,0.98,0.88,1.46
		c0.29,0.47,0.57,0.94,0.86,1.4c0.29,0.48,0.59,0.95,0.9,1.43c2.21,3.54,4.67,7.22,7.3,10.96l0.01,0.69h0.38
		c10.6,20.89,27.08,38.23,47.69,50.17c3.59,2.86,7.28,5.63,11.04,8.29c-15.84-3.34-31.38-8.21-46.26-14.5
		c-0.3-0.12-0.59-0.25-0.93-0.4c-0.28-0.11-0.57-0.23-0.89-0.38c-0.3-0.12-0.59-0.26-0.91-0.4c-21.1-9.22-40.79-21.3-58.52-35.89
		c-19.7-16.23-36.61-35.21-50.27-56.43l-0.08-0.13l-0.09-0.13l-0.03-0.05l-0.14-0.21c-0.05-0.07-0.09-0.14-0.16-0.27
		c-21.95-34.36-34.69-73.96-36.85-114.51c-0.22-4.18-0.33-8.44-0.33-12.66c0-32.42,6.5-63.89,19.31-93.52
		c0.02-0.05,0.05-0.1,0.08-0.16l0.02-0.04l0.02-0.04l0.04-0.09l0-0.01l0.02-0.04l0.02-0.04l0.06-0.14
		c16.38-37.59,42.57-70.82,75.75-96.08l0.21-0.16l0.22-0.17c1.82-1.39,3.84-2.87,6.35-4.66c0.26-0.19,0.51-0.36,0.77-0.54l0.29-0.2
		l0.26-0.18l0.04-0.03l0,0c0.02-0.01,0.04-0.02,0.06-0.04l0.04-0.02l0.04-0.03c0.52-0.37,1.08-0.75,1.72-1.17
		c4.13-2.79,8.37-5.46,12.59-7.95c38.67-22.84,83.15-34.91,128.62-34.91H945.35 M945.33,161.42c-47.27,0-91.47,12.81-129.13,35.05
		c-4.3,2.54-8.52,5.2-12.64,7.98c-0.58,0.39-1.17,0.78-1.74,1.19c-0.06,0.03-0.11,0.06-0.17,0.11c-0.19,0.13-0.36,0.26-0.55,0.39
		c-0.26,0.18-0.53,0.36-0.79,0.56c-2.15,1.53-4.28,3.08-6.37,4.68c-0.14,0.11-0.29,0.21-0.43,0.32
		c-33.08,25.19-59.45,58.34-76.07,96.48c-0.02,0.05-0.04,0.11-0.07,0.16c-0.03,0.06-0.06,0.13-0.08,0.18
		c-0.03,0.06-0.06,0.13-0.09,0.18c-12.5,28.89-19.41,60.64-19.41,93.96c0,4.26,0.11,8.5,0.33,12.71
		c2.24,42.06,15.48,81.29,37.01,114.99c0.05,0.1,0.11,0.18,0.17,0.27c0.05,0.09,0.11,0.17,0.16,0.26c0.07,0.1,0.12,0.18,0.19,0.28
		c13.73,21.33,30.79,40.43,50.46,56.64c17.64,14.52,37.4,26.7,58.75,36.04c0.31,0.14,0.62,0.28,0.92,0.41
		c0.3,0.14,0.61,0.27,0.9,0.39c0.31,0.14,0.61,0.27,0.91,0.4c16.24,6.87,33.38,12.12,51.19,15.51c-5.12-3.47-10.12-7.15-14.99-11.03
		l-0.01-0.01c-20.5-11.86-37.15-29.38-47.65-50.34c-0.01,0-0.01-0.01-0.01-0.01c-2.6-3.67-5.09-7.4-7.45-11.16
		c-0.31-0.48-0.6-0.95-0.89-1.42c-0.3-0.47-0.58-0.94-0.87-1.41c-0.3-0.47-0.58-0.95-0.87-1.43c-8.47-14.09-15.32-28.8-20.59-43.88
		c-6.46-18.43-10.52-37.42-12.26-56.55c0-0.02-0.01-0.04,0-0.06c-0.01-0.01-0.01-0.03-0.01-0.05c0-0.01-0.01-0.03,0-0.05
		c-2.9-32.08,0.78-64.53,10.87-95.29c9.21-28.1,23.77-54.79,43.54-78.51c0.11-0.14,0.22-0.28,0.34-0.42
		c0.11-0.14,0.23-0.28,0.34-0.41c0.11-0.14,0.22-0.27,0.33-0.4c9.44-11.19,20.06-21.71,31.82-31.4
		c25.15-20.72,53.3-35.74,82.79-45.2c25.38-8.15,51.75-12.19,78.05-12.19c14.66,0,29.3,1.25,43.74,3.74
		c-39.83-26.27-87.89-41.62-139.64-41.62C945.34,161.42,945.33,161.42,945.33,161.42L945.33,161.42z"/>
</g>
<polygon class="st0" points="645.21,359.58 673.87,375.68 720.51,297.12 691.84,281.02 "/>
<polygon class="st0" points="621.59,381.39 647.8,396.12 688.94,326.82 662.73,312.09 "/>
<path class="st0" d="M801.83,452.08l-3.57,3.29c-5.84,5.39-4.72,14.92,2.21,18.81l2.42,1.36c6.74,3.79,15.24,0.11,17.1-7.4
	l1.15-4.65C823.92,452.22,810.36,444.21,801.83,452.08z"/>
<path class="st0" d="M1071.87,580.15l-4.93,4.23c-8.93,7.68-7.52,21.9,2.75,27.67l3.62,2.03c10,5.62,22.58-0.1,24.93-11.33
	l1.31-6.27C1102.85,580.62,1084.16,569.59,1071.87,580.15z"/>
</svg>
